STARTFONT 2.1
COMMENT
COMMENT Converted from OpenType font "uvnbaisau_regular.ttf" by "otf2bdf 3.0".
COMMENT
FONT -FreeType-UVN Bai Sau-Bold-R-Normal--14-100-100-100-P-71-ISO10646-1
SIZE 10 100 100
FONTBOUNDINGBOX 19 20 -2 -4
STARTPROPERTIES 19
FOUNDRY "FreeType"
FAMILY_NAME "UVN Bai Sau"
WEIGHT_NAME "Bold"
SLANT "R"
SETWIDTH_NAME "Normal"
ADD_STYLE_NAME ""
PIXEL_SIZE 14
POINT_SIZE 100
RESOLUTION_X 100
RESOLUTION_Y 100
SPACING "P"
AVERAGE_WIDTH 71
CHARSET_REGISTRY "ISO10646"
CHARSET_ENCODING "1"
FONT_ASCENT 15
FONT_DESCENT 3
COPYRIGHT "(c) Copyright 2001 by Tom Truong. All Rights Reserved"
_OTF_FONTFILE "uvnbaisau_regular.ttf"
_OTF_PSNAME "UVNBaiSauBold"
ENDPROPERTIES
CHARS 383
STARTCHAR 0020
ENCODING 32
SWIDTH 216 0
DWIDTH 3 0
BBX 0 0 0 0
BITMAP
ENDCHAR
STARTCHAR 0021
ENCODING 33
SWIDTH 288 0
DWIDTH 4 0
BBX 3 10 1 0
BITMAP
E0
E0
C0
C0
C0
C0
C0
40
E0
C0
ENDCHAR
STARTCHAR 0022
ENCODING 34
SWIDTH 288 0
DWIDTH 4 0
BBX 3 4 1 6
BITMAP
A0
A0
A0
A0
ENDCHAR
STARTCHAR 0023
ENCODING 35
SWIDTH 720 0
DWIDTH 10 0
BBX 10 10 0 0
BITMAP
0C80
0D80
0980
3FC0
1B00
1300
FF80
3600
2600
6400
ENDCHAR
STARTCHAR 0024
ENCODING 36
SWIDTH 504 0
DWIDTH 7 0
BBX 6 12 1 -1
BITMAP
30
30
78
F8
60
78
3C
0C
7C
78
30
30
ENDCHAR
STARTCHAR 0025
ENCODING 37
SWIDTH 864 0
DWIDTH 12 0
BBX 12 10 0 0
BITMAP
30C0
7880
C900
4B00
7A00
06E0
0DE0
0930
19E0
10E0
ENDCHAR
STARTCHAR 0026
ENCODING 38
SWIDTH 720 0
DWIDTH 10 0
BBX 9 10 1 0
BITMAP
7C00
7C00
7000
7100
FB80
DD80
CF80
E700
FF00
3F80
ENDCHAR
STARTCHAR 0027
ENCODING 39
SWIDTH 144 0
DWIDTH 2 0
BBX 1 4 1 6
BITMAP
80
80
80
80
ENDCHAR
STARTCHAR 0028
ENCODING 40
SWIDTH 360 0
DWIDTH 5 0
BBX 4 12 1 -2
BITMAP
30
60
40
C0
C0
C0
C0
C0
C0
60
30
30
ENDCHAR
STARTCHAR 0029
ENCODING 41
SWIDTH 360 0
DWIDTH 5 0
BBX 4 13 0 -3
BITMAP
40
E0
60
30
30
10
10
10
10
30
30
60
40
ENDCHAR
STARTCHAR 002A
ENCODING 42
SWIDTH 432 0
DWIDTH 6 0
BBX 5 5 1 5
BITMAP
20
B8
70
F8
20
ENDCHAR
STARTCHAR 002B
ENCODING 43
SWIDTH 792 0
DWIDTH 11 0
BBX 8 8 2 0
BITMAP
18
18
18
FF
FF
18
18
18
ENDCHAR
STARTCHAR 002C
ENCODING 44
SWIDTH 216 0
DWIDTH 3 0
BBX 3 4 0 -2
BITMAP
60
60
40
C0
ENDCHAR
STARTCHAR 002D
ENCODING 45
SWIDTH 288 0
DWIDTH 4 0
BBX 4 1 0 3
BITMAP
F0
ENDCHAR
STARTCHAR 002E
ENCODING 46
SWIDTH 216 0
DWIDTH 3 0
BBX 2 3 1 0
BITMAP
80
C0
C0
ENDCHAR
STARTCHAR 002F
ENCODING 47
SWIDTH 216 0
DWIDTH 3 0
BBX 4 11 0 -1
BITMAP
10
10
30
20
20
60
40
40
C0
80
80
ENDCHAR
STARTCHAR 0030
ENCODING 48
SWIDTH 504 0
DWIDTH 7 0
BBX 7 10 0 0
BITMAP
3C
7E
66
E6
E6
E6
E6
E6
7E
3C
ENDCHAR
STARTCHAR 0031
ENCODING 49
SWIDTH 504 0
DWIDTH 7 0
BBX 4 10 2 0
BITMAP
F0
F0
70
70
70
70
70
70
70
70
ENDCHAR
STARTCHAR 0032
ENCODING 50
SWIDTH 504 0
DWIDTH 7 0
BBX 6 10 1 0
BITMAP
78
FC
DC
CC
DC
38
70
E0
FC
FC
ENDCHAR
STARTCHAR 0033
ENCODING 51
SWIDTH 504 0
DWIDTH 7 0
BBX 6 10 1 0
BITMAP
F8
FC
1C
38
78
7C
0C
0C
FC
F8
ENDCHAR
STARTCHAR 0034
ENCODING 52
SWIDTH 504 0
DWIDTH 7 0
BBX 8 10 0 0
BITMAP
1C
1C
34
3C
6C
6C
FF
7F
0C
0C
ENDCHAR
STARTCHAR 0035
ENCODING 53
SWIDTH 504 0
DWIDTH 7 0
BBX 6 10 1 0
BITMAP
F8
F8
C0
F0
FC
FC
0C
0C
FC
F8
ENDCHAR
STARTCHAR 0036
ENCODING 54
SWIDTH 504 0
DWIDTH 7 0
BBX 7 10 0 0
BITMAP
1C
18
38
30
7E
6E
E6
66
7E
3C
ENDCHAR
STARTCHAR 0037
ENCODING 55
SWIDTH 504 0
DWIDTH 7 0
BBX 6 10 1 0
BITMAP
F8
FC
FC
1C
18
FC
38
30
30
70
ENDCHAR
STARTCHAR 0038
ENCODING 56
SWIDTH 504 0
DWIDTH 7 0
BBX 7 10 0 0
BITMAP
3C
7E
66
66
3C
7E
E6
E6
7E
3C
ENDCHAR
STARTCHAR 0039
ENCODING 57
SWIDTH 504 0
DWIDTH 7 0
BBX 7 10 0 0
BITMAP
3C
7E
7E
E6
E6
7E
2C
1C
18
38
ENDCHAR
STARTCHAR 003A
ENCODING 58
SWIDTH 288 0
DWIDTH 4 0
BBX 3 7 1 0
BITMAP
C0
E0
C0
00
40
E0
C0
ENDCHAR
STARTCHAR 003B
ENCODING 59
SWIDTH 288 0
DWIDTH 4 0
BBX 4 9 0 -2
BITMAP
60
70
60
00
00
60
60
60
C0
ENDCHAR
STARTCHAR 003C
ENCODING 60
SWIDTH 792 0
DWIDTH 11 0
BBX 8 8 2 0
BITMAP
03
0F
78
E0
F0
3C
0F
01
ENDCHAR
STARTCHAR 003D
ENCODING 61
SWIDTH 792 0
DWIDTH 11 0
BBX 8 4 2 2
BITMAP
FF
00
00
FF
ENDCHAR
STARTCHAR 003E
ENCODING 62
SWIDTH 792 0
DWIDTH 11 0
BBX 8 8 2 0
BITMAP
C0
F0
3C
07
0F
3C
E0
80
ENDCHAR
STARTCHAR 003F
ENCODING 63
SWIDTH 504 0
DWIDTH 7 0
BBX 7 10 0 0
BITMAP
38
7C
EE
0E
3E
3C
38
10
38
38
ENDCHAR
STARTCHAR 0040
ENCODING 64
SWIDTH 936 0
DWIDTH 13 0
BBX 12 12 1 -2
BITMAP
1FC0
3060
6030
CE90
9990
9990
9110
9330
9FE0
C000
70E0
1F80
ENDCHAR
STARTCHAR 0041
ENCODING 65
SWIDTH 576 0
DWIDTH 8 0
BBX 7 10 1 0
BITMAP
38
FC
FE
C6
FE
FE
C6
C6
C6
C6
ENDCHAR
STARTCHAR 0042
ENCODING 66
SWIDTH 576 0
DWIDTH 8 0
BBX 7 10 1 0
BITMAP
78
FC
CC
CC
FC
FC
CE
CE
FE
FC
ENDCHAR
STARTCHAR 0043
ENCODING 67
SWIDTH 504 0
DWIDTH 7 0
BBX 7 10 0 0
BITMAP
0E
3E
7E
60
E0
E0
60
78
3E
1E
ENDCHAR
STARTCHAR 0044
ENCODING 68
SWIDTH 576 0
DWIDTH 8 0
BBX 8 10 1 0
BITMAP
F0
FC
FE
C6
C7
C7
C6
DE
DC
D8
ENDCHAR
STARTCHAR 0045
ENCODING 69
SWIDTH 504 0
DWIDTH 7 0
BBX 7 10 0 0
BITMAP
0E
3E
7C
60
FE
FE
60
70
3E
1E
ENDCHAR
STARTCHAR 0046
ENCODING 70
SWIDTH 432 0
DWIDTH 6 0
BBX 5 10 1 0
BITMAP
38
F8
F8
C0
F8
F8
C0
C0
C0
C0
ENDCHAR
STARTCHAR 0047
ENCODING 71
SWIDTH 720 0
DWIDTH 10 0
BBX 10 10 0 0
BITMAP
1F00
3F80
7B00
6000
E7C0
E7C0
61C0
71C0
3F80
1F00
ENDCHAR
STARTCHAR 0048
ENCODING 72
SWIDTH 576 0
DWIDTH 8 0
BBX 7 10 1 0
BITMAP
C6
C6
C6
C6
FE
FE
C6
C6
C6
C6
ENDCHAR
STARTCHAR 0049
ENCODING 73
SWIDTH 216 0
DWIDTH 3 0
BBX 2 10 1 0
BITMAP
C0
C0
C0
C0
C0
C0
C0
C0
C0
C0
ENDCHAR
STARTCHAR 004A
ENCODING 74
SWIDTH 360 0
DWIDTH 5 0
BBX 5 10 0 0
BITMAP
18
18
18
18
18
18
18
18
F8
F0
ENDCHAR
STARTCHAR 004B
ENCODING 75
SWIDTH 576 0
DWIDTH 8 0
BBX 7 10 1 0
BITMAP
C6
CE
CC
DC
FC
FE
CE
CE
CE
CE
ENDCHAR
STARTCHAR 004C
ENCODING 76
SWIDTH 432 0
DWIDTH 6 0
BBX 5 10 1 0
BITMAP
C0
C0
C0
C0
C0
C0
C0
C0
F8
78
ENDCHAR
STARTCHAR 004D
ENCODING 77
SWIDTH 792 0
DWIDTH 11 0
BBX 11 10 0 0
BITMAP
30C0
79C0
79C0
7B60
6F60
6F60
6F60
6E60
E660
E660
ENDCHAR
STARTCHAR 004E
ENCODING 78
SWIDTH 648 0
DWIDTH 9 0
BBX 7 10 1 0
BITMAP
C6
E6
F6
F6
FE
DE
DE
CE
CE
C6
ENDCHAR
STARTCHAR 004F
ENCODING 79
SWIDTH 720 0
DWIDTH 10 0
BBX 10 10 0 0
BITMAP
1E00
3F80
7FC0
61C0
E0C0
E0C0
60C0
73C0
3F80
1F00
ENDCHAR
STARTCHAR 0050
ENCODING 80
SWIDTH 504 0
DWIDTH 7 0
BBX 7 10 1 0
BITMAP
78
FC
EE
CE
DE
FC
F8
C0
C0
C0
ENDCHAR
STARTCHAR 0051
ENCODING 81
SWIDTH 720 0
DWIDTH 10 0
BBX 10 11 0 -1
BITMAP
1E00
3F80
7FC0
61C0
E0C0
E0C0
6CC0
7FC0
3F80
1F00
0C00
ENDCHAR
STARTCHAR 0052
ENCODING 82
SWIDTH 576 0
DWIDTH 8 0
BBX 7 10 1 0
BITMAP
78
FC
CC
CC
FC
FC
CE
CE
CE
CE
ENDCHAR
STARTCHAR 0053
ENCODING 83
SWIDTH 504 0
DWIDTH 7 0
BBX 7 10 0 0
BITMAP
3C
7C
7C
60
78
3C
0E
0E
FE
FC
ENDCHAR
STARTCHAR 0054
ENCODING 84
SWIDTH 432 0
DWIDTH 6 0
BBX 7 10 0 0
BITMAP
FE
FE
FE
38
38
38
38
38
38
38
ENDCHAR
STARTCHAR 0055
ENCODING 85
SWIDTH 576 0
DWIDTH 8 0
BBX 7 10 1 0
BITMAP
C6
C6
C6
C6
C6
C6
C6
CE
FC
7C
ENDCHAR
STARTCHAR 0056
ENCODING 86
SWIDTH 504 0
DWIDTH 7 0
BBX 8 10 0 0
BITMAP
C7
E7
E6
66
6E
6E
7C
3C
3C
38
ENDCHAR
STARTCHAR 0057
ENCODING 87
SWIDTH 864 0
DWIDTH 12 0
BBX 11 10 1 0
BITMAP
CE60
CE60
CE60
CE60
CE60
CE60
CE60
CEE0
FFE0
7BC0
ENDCHAR
STARTCHAR 0058
ENCODING 88
SWIDTH 576 0
DWIDTH 8 0
BBX 9 10 0 0
BITMAP
C180
F780
FF80
1C00
1C00
1C00
1C00
3E00
F780
E380
ENDCHAR
STARTCHAR 0059
ENCODING 89
SWIDTH 504 0
DWIDTH 7 0
BBX 6 10 1 0
BITMAP
CC
CC
CC
CC
FC
FC
70
30
30
30
ENDCHAR
STARTCHAR 005A
ENCODING 90
SWIDTH 504 0
DWIDTH 7 0
BBX 7 10 0 0
BITMAP
7E
7E
7E
1C
1C
38
70
60
FE
FE
ENDCHAR
STARTCHAR 005B
ENCODING 91
SWIDTH 288 0
DWIDTH 4 0
BBX 3 13 1 -3
BITMAP
E0
C0
C0
C0
C0
C0
C0
C0
C0
C0
C0
C0
E0
ENDCHAR
STARTCHAR 005C
ENCODING 92
SWIDTH 216 0
DWIDTH 3 0
BBX 4 11 0 -1
BITMAP
80
80
C0
40
40
40
20
20
20
30
10
ENDCHAR
STARTCHAR 005D
ENCODING 93
SWIDTH 288 0
DWIDTH 4 0
BBX 3 13 1 -3
BITMAP
E0
60
60
60
60
60
60
60
60
60
60
60
E0
ENDCHAR
STARTCHAR 005E
ENCODING 94
SWIDTH 936 0
DWIDTH 13 0
BBX 8 4 3 6
BITMAP
18
3C
66
C3
ENDCHAR
STARTCHAR 005F
ENCODING 95
SWIDTH 432 0
DWIDTH 6 0
BBX 7 1 0 -3
BITMAP
FE
ENDCHAR
STARTCHAR 0060
ENCODING 96
SWIDTH 432 0
DWIDTH 6 0
BBX 2 2 2 8
BITMAP
C0
40
ENDCHAR
STARTCHAR 0061
ENCODING 97
SWIDTH 504 0
DWIDTH 7 0
BBX 7 7 0 0
BITMAP
3C
7E
E6
E6
E6
7E
3E
ENDCHAR
STARTCHAR 0062
ENCODING 98
SWIDTH 504 0
DWIDTH 7 0
BBX 6 10 1 0
BITMAP
C0
C0
C0
F8
FC
CC
CC
CC
FC
78
ENDCHAR
STARTCHAR 0063
ENCODING 99
SWIDTH 360 0
DWIDTH 5 0
BBX 5 7 0 0
BITMAP
38
78
E0
E0
E0
78
38
ENDCHAR
STARTCHAR 0064
ENCODING 100
SWIDTH 504 0
DWIDTH 7 0
BBX 7 10 0 0
BITMAP
06
06
06
3E
7E
E6
E6
E6
7E
3C
ENDCHAR
STARTCHAR 0065
ENCODING 101
SWIDTH 504 0
DWIDTH 7 0
BBX 8 7 0 0
BITMAP
3C
7E
EE
D8
E7
7E
3C
ENDCHAR
STARTCHAR 0066
ENCODING 102
SWIDTH 288 0
DWIDTH 4 0
BBX 4 10 1 0
BITMAP
70
F0
C0
F0
F0
C0
C0
C0
C0
C0
ENDCHAR
STARTCHAR 0067
ENCODING 103
SWIDTH 504 0
DWIDTH 7 0
BBX 7 10 0 -3
BITMAP
3C
7E
E6
E6
E6
7E
3E
06
7E
7C
ENDCHAR
STARTCHAR 0068
ENCODING 104
SWIDTH 504 0
DWIDTH 7 0
BBX 6 10 1 0
BITMAP
C0
C0
C0
F8
FC
CC
CC
CC
CC
CC
ENDCHAR
STARTCHAR 0069
ENCODING 105
SWIDTH 216 0
DWIDTH 3 0
BBX 3 10 0 0
BITMAP
60
E0
40
60
60
60
60
60
60
60
ENDCHAR
STARTCHAR 006A
ENCODING 106
SWIDTH 216 0
DWIDTH 3 0
BBX 4 13 -1 -3
BITMAP
30
30
20
30
30
30
30
30
30
30
30
F0
E0
ENDCHAR
STARTCHAR 006B
ENCODING 107
SWIDTH 504 0
DWIDTH 7 0
BBX 6 10 1 0
BITMAP
C0
C0
C0
DC
D8
F8
F8
DC
CC
CC
ENDCHAR
STARTCHAR 006C
ENCODING 108
SWIDTH 216 0
DWIDTH 3 0
BBX 2 10 1 0
BITMAP
C0
C0
C0
C0
C0
C0
C0
C0
C0
C0
ENDCHAR
STARTCHAR 006D
ENCODING 109
SWIDTH 792 0
DWIDTH 11 0
BBX 10 7 1 0
BITMAP
7700
FF80
DD80
DDC0
DDC0
DDC0
DDC0
ENDCHAR
STARTCHAR 006E
ENCODING 110
SWIDTH 504 0
DWIDTH 7 0
BBX 6 7 1 0
BITMAP
70
F8
CC
CC
CC
CC
CC
ENDCHAR
STARTCHAR 006F
ENCODING 111
SWIDTH 504 0
DWIDTH 7 0
BBX 7 7 0 0
BITMAP
3C
7E
E6
E6
E6
7E
3C
ENDCHAR
STARTCHAR 0070
ENCODING 112
SWIDTH 504 0
DWIDTH 7 0
BBX 6 10 1 -3
BITMAP
78
FC
CC
CC
CC
FC
F8
C0
C0
C0
ENDCHAR
STARTCHAR 0071
ENCODING 113
SWIDTH 504 0
DWIDTH 7 0
BBX 7 10 0 -3
BITMAP
3C
7E
E6
E6
E6
7E
3E
06
06
06
ENDCHAR
STARTCHAR 0072
ENCODING 114
SWIDTH 360 0
DWIDTH 5 0
BBX 4 7 1 0
BITMAP
F0
F0
E0
C0
C0
C0
C0
ENDCHAR
STARTCHAR 0073
ENCODING 115
SWIDTH 432 0
DWIDTH 6 0
BBX 6 7 0 0
BITMAP
78
78
60
78
1C
FC
F8
ENDCHAR
STARTCHAR 0074
ENCODING 116
SWIDTH 288 0
DWIDTH 4 0
BBX 3 9 1 0
BITMAP
C0
C0
E0
E0
C0
C0
C0
E0
60
ENDCHAR
STARTCHAR 0075
ENCODING 117
SWIDTH 504 0
DWIDTH 7 0
BBX 6 7 1 0
BITMAP
CC
CC
CC
CC
CC
F8
78
ENDCHAR
STARTCHAR 0076
ENCODING 118
SWIDTH 432 0
DWIDTH 6 0
BBX 7 7 0 0
BITMAP
CE
CC
6C
6C
78
38
38
ENDCHAR
STARTCHAR 0077
ENCODING 119
SWIDTH 792 0
DWIDTH 11 0
BBX 10 7 1 0
BITMAP
DDC0
DDC0
DDC0
DDC0
DD80
FF80
7700
ENDCHAR
STARTCHAR 0078
ENCODING 120
SWIDTH 432 0
DWIDTH 6 0
BBX 6 7 0 0
BITMAP
CC
FC
78
30
38
FC
CC
ENDCHAR
STARTCHAR 0079
ENCODING 121
SWIDTH 504 0
DWIDTH 7 0
BBX 6 10 1 -3
BITMAP
CC
CC
CC
CC
CC
F8
78
30
30
30
ENDCHAR
STARTCHAR 007A
ENCODING 122
SWIDTH 432 0
DWIDTH 6 0
BBX 6 7 0 0
BITMAP
7C
7C
18
38
70
FC
FC
ENDCHAR
STARTCHAR 007B
ENCODING 123
SWIDTH 432 0
DWIDTH 6 0
BBX 5 13 1 -3
BITMAP
38
38
30
30
30
70
E0
70
30
30
30
38
18
ENDCHAR
STARTCHAR 007C
ENCODING 124
SWIDTH 432 0
DWIDTH 6 0
BBX 1 14 3 -3
BITMAP
80
80
80
80
80
80
80
80
80
80
80
80
80
80
ENDCHAR
STARTCHAR 007D
ENCODING 125
SWIDTH 432 0
DWIDTH 6 0
BBX 5 13 1 -3
BITMAP
E0
E0
60
60
60
70
38
70
60
60
60
E0
C0
ENDCHAR
STARTCHAR 007E
ENCODING 126
SWIDTH 792 0
DWIDTH 11 0
BBX 9 2 1 4
BITMAP
FF80
CF80
ENDCHAR
STARTCHAR 0080
ENCODING 128
SWIDTH 504 0
DWIDTH 7 0
BBX 7 10 0 0
BITMAP
06
1E
3C
70
FE
70
7C
38
3E
0E
ENDCHAR
STARTCHAR 00A0
ENCODING 160
SWIDTH 504 0
DWIDTH 7 0
BBX 0 0 0 0
BITMAP
ENDCHAR
STARTCHAR 00A1
ENCODING 161
SWIDTH 288 0
DWIDTH 4 0
BBX 3 10 1 0
BITMAP
C0
E0
C0
C0
C0
C0
C0
C0
E0
E0
ENDCHAR
STARTCHAR 00A2
ENCODING 162
SWIDTH 504 0
DWIDTH 7 0
BBX 4 10 2 0
BITMAP
20
20
70
F0
C0
80
F0
F0
20
20
ENDCHAR
STARTCHAR 00A3
ENCODING 163
SWIDTH 504 0
DWIDTH 7 0
BBX 8 10 0 0
BITMAP
1C
3C
30
70
78
78
77
67
FE
FC
ENDCHAR
STARTCHAR 00A4
ENCODING 164
SWIDTH 504 0
DWIDTH 7 0
BBX 7 10 0 0
BITMAP
06
1E
3C
70
FE
70
7C
38
3E
0E
ENDCHAR
STARTCHAR 00A5
ENCODING 165
SWIDTH 576 0
DWIDTH 8 0
BBX 8 10 0 0
BITMAP
C3
67
66
F7
3C
FF
18
18
18
18
ENDCHAR
STARTCHAR 00A6
ENCODING 166
SWIDTH 432 0
DWIDTH 6 0
BBX 1 12 3 -2
BITMAP
80
80
80
80
80
00
00
80
80
80
80
80
ENDCHAR
STARTCHAR 00A7
ENCODING 167
SWIDTH 504 0
DWIDTH 7 0
BBX 6 11 1 -1
BITMAP
78
F8
C0
E0
F8
DC
FC
38
0C
FC
F8
ENDCHAR
STARTCHAR 00A8
ENCODING 168
SWIDTH 432 0
DWIDTH 6 0
BBX 4 2 1 8
BITMAP
50
D0
ENDCHAR
STARTCHAR 00A9
ENCODING 169
SWIDTH 792 0
DWIDTH 11 0
BBX 10 10 1 0
BITMAP
3E00
6100
9E80
B240
B040
B040
B240
DE80
6100
3E00
ENDCHAR
STARTCHAR 00AA
ENCODING 170
SWIDTH 360 0
DWIDTH 5 0
BBX 5 5 0 5
BITMAP
30
78
C8
C8
78
ENDCHAR
STARTCHAR 00AB
ENCODING 171
SWIDTH 504 0
DWIDTH 7 0
BBX 6 5 1 1
BITMAP
6C
58
90
58
6C
ENDCHAR
STARTCHAR 00AC
ENCODING 172
SWIDTH 792 0
DWIDTH 11 0
BBX 8 4 2 2
BITMAP
FF
FF
03
03
ENDCHAR
STARTCHAR 00AD
ENCODING 173
SWIDTH 288 0
DWIDTH 4 0
BBX 4 1 0 3
BITMAP
F0
ENDCHAR
STARTCHAR 00AE
ENCODING 174
SWIDTH 792 0
DWIDTH 11 0
BBX 10 10 1 0
BITMAP
3E00
6100
9E80
9240
9640
9C40
9640
9280
6100
3E00
ENDCHAR
STARTCHAR 00AF
ENCODING 175
SWIDTH 432 0
DWIDTH 6 0
BBX 3 1 2 8
BITMAP
E0
ENDCHAR
STARTCHAR 00B0
ENCODING 176
SWIDTH 288 0
DWIDTH 4 0
BBX 4 4 0 6
BITMAP
70
90
90
70
ENDCHAR
STARTCHAR 00B1
ENCODING 177
SWIDTH 792 0
DWIDTH 11 0
BBX 8 8 2 0
BITMAP
18
18
FF
18
18
00
00
FF
ENDCHAR
STARTCHAR 00B2
ENCODING 178
SWIDTH 360 0
DWIDTH 5 0
BBX 5 6 0 4
BITMAP
70
58
58
30
60
F8
ENDCHAR
STARTCHAR 00B3
ENCODING 179
SWIDTH 360 0
DWIDTH 5 0
BBX 5 6 0 4
BITMAP
70
70
20
78
18
F0
ENDCHAR
STARTCHAR 00B4
ENCODING 180
SWIDTH 432 0
DWIDTH 6 0
BBX 2 2 3 8
BITMAP
C0
80
ENDCHAR
STARTCHAR 00B5
ENCODING 181
SWIDTH 576 0
DWIDTH 8 0
BBX 8 10 0 -3
BITMAP
73
63
63
63
67
FF
FE
C0
C0
C0
ENDCHAR
STARTCHAR 00B6
ENCODING 182
SWIDTH 432 0
DWIDTH 6 0
BBX 7 10 0 0
BITMAP
7E
F4
F4
F4
34
14
14
14
14
14
ENDCHAR
STARTCHAR 00B7
ENCODING 183
SWIDTH 216 0
DWIDTH 3 0
BBX 2 2 1 4
BITMAP
C0
C0
ENDCHAR
STARTCHAR 00B8
ENCODING 184
SWIDTH 432 0
DWIDTH 6 0
BBX 3 4 2 -3
BITMAP
40
40
20
E0
ENDCHAR
STARTCHAR 00B9
ENCODING 185
SWIDTH 360 0
DWIDTH 5 0
BBX 3 6 1 4
BITMAP
E0
E0
60
60
60
60
ENDCHAR
STARTCHAR 00BA
ENCODING 186
SWIDTH 360 0
DWIDTH 5 0
BBX 5 5 0 5
BITMAP
30
78
C8
D8
78
ENDCHAR
STARTCHAR 00BB
ENCODING 187
SWIDTH 504 0
DWIDTH 7 0
BBX 6 5 1 1
BITMAP
90
58
6C
58
90
ENDCHAR
STARTCHAR 00BC
ENCODING 188
SWIDTH 864 0
DWIDTH 12 0
BBX 11 10 1 0
BITMAP
E100
E100
6200
6600
6400
6CC0
09C0
1140
31E0
2040
ENDCHAR
STARTCHAR 00BD
ENCODING 189
SWIDTH 864 0
DWIDTH 12 0
BBX 11 10 1 0
BITMAP
E100
E100
6200
6600
6480
6DE0
0960
11C0
3180
21E0
ENDCHAR
STARTCHAR 00BE
ENCODING 190
SWIDTH 864 0
DWIDTH 12 0
BBX 12 10 0 0
BITMAP
7080
7080
6100
1300
F200
F660
04E0
08A0
18F0
1020
ENDCHAR
STARTCHAR 00BF
ENCODING 191
SWIDTH 504 0
DWIDTH 7 0
BBX 7 10 0 0
BITMAP
18
38
18
18
38
78
60
E6
7E
3C
ENDCHAR
STARTCHAR 00C0
ENCODING 192
SWIDTH 576 0
DWIDTH 8 0
BBX 7 13 1 0
BITMAP
20
10
00
38
FC
FE
C6
FE
FE
C6
C6
C6
C6
ENDCHAR
STARTCHAR 00C1
ENCODING 193
SWIDTH 576 0
DWIDTH 8 0
BBX 7 13 1 0
BITMAP
18
10
00
38
FC
FE
C6
FE
FE
C6
C6
C6
C6
ENDCHAR
STARTCHAR 00C2
ENCODING 194
SWIDTH 576 0
DWIDTH 8 0
BBX 7 13 1 0
BITMAP
30
28
48
38
FC
FE
C6
FE
FE
C6
C6
C6
C6
ENDCHAR
STARTCHAR 00C3
ENCODING 195
SWIDTH 576 0
DWIDTH 8 0
BBX 7 13 1 0
BITMAP
20
78
00
38
FC
FE
C6
FE
FE
C6
C6
C6
C6
ENDCHAR
STARTCHAR 00C4
ENCODING 196
SWIDTH 576 0
DWIDTH 8 0
BBX 7 13 1 0
BITMAP
28
68
00
38
FC
FE
C6
FE
FE
C6
C6
C6
C6
ENDCHAR
STARTCHAR 00C5
ENCODING 197
SWIDTH 576 0
DWIDTH 8 0
BBX 7 13 1 0
BITMAP
38
28
38
38
FC
FE
C6
FE
FE
C6
C6
C6
C6
ENDCHAR
STARTCHAR 00C6
ENCODING 198
SWIDTH 864 0
DWIDTH 12 0
BBX 10 10 1 0
BITMAP
38C0
FFC0
EFC0
C600
FFC0
FFC0
C600
C700
C7C0
C7C0
ENDCHAR
STARTCHAR 00C7
ENCODING 199
SWIDTH 504 0
DWIDTH 7 0
BBX 7 13 0 -3
BITMAP
0E
3E
7E
60
E0
E0
60
78
3E
1E
08
04
1C
ENDCHAR
STARTCHAR 00C8
ENCODING 200
SWIDTH 504 0
DWIDTH 7 0
BBX 7 13 0 0
BITMAP
18
08
00
0E
3E
7C
60
FE
FE
60
70
3E
1E
ENDCHAR
STARTCHAR 00C9
ENCODING 201
SWIDTH 504 0
DWIDTH 7 0
BBX 7 13 0 0
BITMAP
0C
08
00
0E
3E
7C
60
FE
FE
60
70
3E
1E
ENDCHAR
STARTCHAR 00CA
ENCODING 202
SWIDTH 504 0
DWIDTH 7 0
BBX 7 13 0 0
BITMAP
0C
14
12
0E
3E
7C
60
FE
FE
60
70
3E
1E
ENDCHAR
STARTCHAR 00CB
ENCODING 203
SWIDTH 504 0
DWIDTH 7 0
BBX 7 13 0 0
BITMAP
14
16
00
0E
3E
7C
60
FE
FE
60
70
3E
1E
ENDCHAR
STARTCHAR 00CC
ENCODING 204
SWIDTH 216 0
DWIDTH 3 0
BBX 3 13 0 0
BITMAP
C0
60
00
60
60
60
60
60
60
60
60
60
60
ENDCHAR
STARTCHAR 00CD
ENCODING 205
SWIDTH 216 0
DWIDTH 3 0
BBX 2 13 1 0
BITMAP
40
C0
00
C0
C0
C0
C0
C0
C0
C0
C0
C0
C0
ENDCHAR
STARTCHAR 00CE
ENCODING 206
SWIDTH 216 0
DWIDTH 3 0
BBX 4 13 0 0
BITMAP
60
B0
00
60
60
60
60
60
60
60
60
60
60
ENDCHAR
STARTCHAR 00CF
ENCODING 207
SWIDTH 216 0
DWIDTH 3 0
BBX 4 13 0 0
BITMAP
90
F0
00
60
60
60
60
60
60
60
60
60
60
ENDCHAR
STARTCHAR 00D0
ENCODING 208
SWIDTH 576 0
DWIDTH 8 0
BBX 9 10 0 0
BITMAP
7800
7E00
7F00
6300
F380
F380
6300
6700
6E00
6C00
ENDCHAR
STARTCHAR 00D1
ENCODING 209
SWIDTH 648 0
DWIDTH 9 0
BBX 7 13 1 0
BITMAP
04
38
00
C6
E6
F6
F6
FE
DE
DE
CE
CE
C6
ENDCHAR
STARTCHAR 00D2
ENCODING 210
SWIDTH 720 0
DWIDTH 10 0
BBX 10 13 0 0
BITMAP
0800
0400
0000
1E00
3F80
7FC0
61C0
E0C0
E0C0
60C0
73C0
3F80
1F00
ENDCHAR
STARTCHAR 00D3
ENCODING 211
SWIDTH 720 0
DWIDTH 10 0
BBX 10 13 0 0
BITMAP
0600
0400
0000
1E00
3F80
7FC0
61C0
E0C0
E0C0
60C0
73C0
3F80
1F00
ENDCHAR
STARTCHAR 00D4
ENCODING 212
SWIDTH 720 0
DWIDTH 10 0
BBX 10 13 0 0
BITMAP
0C00
0A00
1200
1E00
3F80
7FC0
61C0
E0C0
E0C0
60C0
73C0
3F80
1F00
ENDCHAR
STARTCHAR 00D5
ENCODING 213
SWIDTH 720 0
DWIDTH 10 0
BBX 10 13 0 0
BITMAP
0800
1E00
0000
1E00
3F80
7FC0
61C0
E0C0
E0C0
60C0
73C0
3F80
1F00
ENDCHAR
STARTCHAR 00D6
ENCODING 214
SWIDTH 720 0
DWIDTH 10 0
BBX 10 13 0 0
BITMAP
0A00
1A00
0000
1E00
3F80
7FC0
61C0
E0C0
E0C0
60C0
73C0
3F80
1F00
ENDCHAR
STARTCHAR 00D7
ENCODING 215
SWIDTH 792 0
DWIDTH 11 0
BBX 8 8 2 0
BITMAP
C3
E6
7C
38
3C
6E
C7
82
ENDCHAR
STARTCHAR 00D8
ENCODING 216
SWIDTH 720 0
DWIDTH 10 0
BBX 10 11 0 -1
BITMAP
1E40
3F80
7BC0
63C0
E6C0
ECC0
78C0
71C0
7F80
5F00
4000
ENDCHAR
STARTCHAR 00D9
ENCODING 217
SWIDTH 576 0
DWIDTH 8 0
BBX 7 13 1 0
BITMAP
20
10
00
C6
C6
C6
C6
C6
C6
C6
CE
FC
7C
ENDCHAR
STARTCHAR 00DA
ENCODING 218
SWIDTH 576 0
DWIDTH 8 0
BBX 7 13 1 0
BITMAP
18
10
00
C6
C6
C6
C6
C6
C6
C6
CE
FC
7C
ENDCHAR
STARTCHAR 00DB
ENCODING 219
SWIDTH 576 0
DWIDTH 8 0
BBX 7 13 1 0
BITMAP
30
28
00
C6
C6
C6
C6
C6
C6
C6
CE
FC
7C
ENDCHAR
STARTCHAR 00DC
ENCODING 220
SWIDTH 576 0
DWIDTH 8 0
BBX 7 13 1 0
BITMAP
28
68
00
C6
C6
C6
C6
C6
C6
C6
CE
FC
7C
ENDCHAR
STARTCHAR 00DD
ENCODING 221
SWIDTH 504 0
DWIDTH 7 0
BBX 6 13 1 0
BITMAP
10
30
00
CC
CC
CC
CC
FC
FC
70
30
30
30
ENDCHAR
STARTCHAR 00DE
ENCODING 222
SWIDTH 504 0
DWIDTH 7 0
BBX 7 10 1 0
BITMAP
C0
F0
FC
FC
CE
CE
FC
F8
C0
C0
ENDCHAR
STARTCHAR 00DF
ENCODING 223
SWIDTH 576 0
DWIDTH 8 0
BBX 8 10 0 0
BITMAP
38
7C
6C
EC
EC
66
67
63
7F
7E
ENDCHAR
STARTCHAR 00E0
ENCODING 224
SWIDTH 504 0
DWIDTH 7 0
BBX 7 10 0 0
BITMAP
30
18
00
3C
7E
E6
E6
E6
7E
3E
ENDCHAR
STARTCHAR 00E1
ENCODING 225
SWIDTH 504 0
DWIDTH 7 0
BBX 7 10 0 0
BITMAP
08
10
00
3C
7E
E6
E6
E6
7E
3E
ENDCHAR
STARTCHAR 00E2
ENCODING 226
SWIDTH 504 0
DWIDTH 7 0
BBX 7 10 0 0
BITMAP
18
2C
00
3C
7E
E6
E6
E6
7E
3E
ENDCHAR
STARTCHAR 00E3
ENCODING 227
SWIDTH 504 0
DWIDTH 7 0
BBX 7 10 0 0
BITMAP
14
38
00
3C
7E
E6
E6
E6
7E
3E
ENDCHAR
STARTCHAR 00E4
ENCODING 228
SWIDTH 504 0
DWIDTH 7 0
BBX 7 10 0 0
BITMAP
2C
3C
00
3C
7E
E6
E6
E6
7E
3E
ENDCHAR
STARTCHAR 00E5
ENCODING 229
SWIDTH 504 0
DWIDTH 7 0
BBX 7 11 0 0
BITMAP
18
24
3C
00
3C
7E
E6
E6
E6
7E
3E
ENDCHAR
STARTCHAR 00E6
ENCODING 230
SWIDTH 792 0
DWIDTH 11 0
BBX 11 7 0 0
BITMAP
7BC0
7FE0
1EE0
7DC0
CE20
FFE0
7BC0
ENDCHAR
STARTCHAR 00E7
ENCODING 231
SWIDTH 360 0
DWIDTH 5 0
BBX 5 10 0 -3
BITMAP
38
78
E0
E0
E0
78
38
10
08
38
ENDCHAR
STARTCHAR 00E8
ENCODING 232
SWIDTH 504 0
DWIDTH 7 0
BBX 8 10 0 0
BITMAP
30
10
00
3C
7E
EE
D8
E7
7E
3C
ENDCHAR
STARTCHAR 00E9
ENCODING 233
SWIDTH 504 0
DWIDTH 7 0
BBX 8 10 0 0
BITMAP
08
10
00
3C
7E
EE
D8
E7
7E
3C
ENDCHAR
STARTCHAR 00EA
ENCODING 234
SWIDTH 504 0
DWIDTH 7 0
BBX 8 10 0 0
BITMAP
18
2C
00
3C
7E
EE
D8
E7
7E
3C
ENDCHAR
STARTCHAR 00EB
ENCODING 235
SWIDTH 504 0
DWIDTH 7 0
BBX 8 10 0 0
BITMAP
2C
2C
00
3C
7E
EE
D8
E7
7E
3C
ENDCHAR
STARTCHAR 00EC
ENCODING 236
SWIDTH 216 0
DWIDTH 3 0
BBX 3 10 0 0
BITMAP
C0
40
00
60
60
60
60
60
60
60
ENDCHAR
STARTCHAR 00ED
ENCODING 237
SWIDTH 216 0
DWIDTH 3 0
BBX 2 10 1 0
BITMAP
40
80
00
C0
C0
C0
C0
C0
C0
C0
ENDCHAR
STARTCHAR 00EE
ENCODING 238
SWIDTH 216 0
DWIDTH 3 0
BBX 3 10 0 0
BITMAP
60
A0
00
60
60
60
60
60
60
60
ENDCHAR
STARTCHAR 00EF
ENCODING 239
SWIDTH 216 0
DWIDTH 3 0
BBX 4 10 0 0
BITMAP
B0
B0
00
60
60
60
60
60
60
60
ENDCHAR
STARTCHAR 00F0
ENCODING 240
SWIDTH 504 0
DWIDTH 7 0
BBX 7 10 0 0
BITMAP
30
3C
38
0C
7E
66
E6
E6
7E
3C
ENDCHAR
STARTCHAR 00F1
ENCODING 241
SWIDTH 504 0
DWIDTH 7 0
BBX 6 10 1 0
BITMAP
08
70
00
70
F8
CC
CC
CC
CC
CC
ENDCHAR
STARTCHAR 00F2
ENCODING 242
SWIDTH 504 0
DWIDTH 7 0
BBX 7 10 0 0
BITMAP
30
10
00
3C
7E
E6
E6
E6
7E
3C
ENDCHAR
STARTCHAR 00F3
ENCODING 243
SWIDTH 504 0
DWIDTH 7 0
BBX 7 10 0 0
BITMAP
08
10
00
3C
7E
E6
E6
E6
7E
3C
ENDCHAR
STARTCHAR 00F4
ENCODING 244
SWIDTH 504 0
DWIDTH 7 0
BBX 7 10 0 0
BITMAP
18
2C
00
3C
7E
E6
E6
E6
7E
3C
ENDCHAR
STARTCHAR 00F5
ENCODING 245
SWIDTH 504 0
DWIDTH 7 0
BBX 7 10 0 0
BITMAP
14
38
00
3C
7E
E6
E6
E6
7E
3C
ENDCHAR
STARTCHAR 00F6
ENCODING 246
SWIDTH 504 0
DWIDTH 7 0
BBX 7 10 0 0
BITMAP
2C
2C
00
3C
7E
E6
E6
E6
7E
3C
ENDCHAR
STARTCHAR 00F7
ENCODING 247
SWIDTH 792 0
DWIDTH 11 0
BBX 8 8 2 0
BITMAP
18
18
00
FF
FF
00
18
10
ENDCHAR
STARTCHAR 00F8
ENCODING 248
SWIDTH 504 0
DWIDTH 7 0
BBX 7 7 0 0
BITMAP
3E
7E
EE
DE
F6
7E
7C
ENDCHAR
STARTCHAR 00F9
ENCODING 249
SWIDTH 504 0
DWIDTH 7 0
BBX 6 10 1 0
BITMAP
60
20
00
CC
CC
CC
CC
CC
F8
78
ENDCHAR
STARTCHAR 00FA
ENCODING 250
SWIDTH 504 0
DWIDTH 7 0
BBX 6 10 1 0
BITMAP
10
20
00
CC
CC
CC
CC
CC
F8
78
ENDCHAR
STARTCHAR 00FB
ENCODING 251
SWIDTH 504 0
DWIDTH 7 0
BBX 6 10 1 0
BITMAP
30
50
00
CC
CC
CC
CC
CC
F8
78
ENDCHAR
STARTCHAR 00FC
ENCODING 252
SWIDTH 504 0
DWIDTH 7 0
BBX 6 10 1 0
BITMAP
58
58
00
CC
CC
CC
CC
CC
F8
78
ENDCHAR
STARTCHAR 00FD
ENCODING 253
SWIDTH 504 0
DWIDTH 7 0
BBX 6 13 1 -3
BITMAP
10
20
00
CC
CC
CC
CC
CC
F8
78
30
30
30
ENDCHAR
STARTCHAR 00FE
ENCODING 254
SWIDTH 504 0
DWIDTH 7 0
BBX 6 13 1 -3
BITMAP
C0
C0
C0
F8
FC
CC
CC
CC
FC
F8
C0
C0
C0
ENDCHAR
STARTCHAR 00FF
ENCODING 255
SWIDTH 504 0
DWIDTH 7 0
BBX 6 13 1 -3
BITMAP
58
58
00
CC
CC
CC
CC
CC
F8
78
30
30
30
ENDCHAR
STARTCHAR 0102
ENCODING 258
SWIDTH 576 0
DWIDTH 8 0
BBX 7 13 1 0
BITMAP
40
78
10
38
FC
FE
C6
FE
FE
C6
C6
C6
C6
ENDCHAR
STARTCHAR 0103
ENCODING 259
SWIDTH 504 0
DWIDTH 7 0
BBX 7 10 0 0
BITMAP
24
3C
00
3C
7E
E6
E6
E6
7E
3E
ENDCHAR
STARTCHAR 0106
ENCODING 262
SWIDTH 504 0
DWIDTH 7 0
BBX 7 13 0 0
BITMAP
0C
08
00
0E
3E
7E
60
E0
E0
60
78
3E
1E
ENDCHAR
STARTCHAR 0107
ENCODING 263
SWIDTH 360 0
DWIDTH 5 0
BBX 5 10 0 0
BITMAP
18
10
00
38
78
E0
E0
E0
78
38
ENDCHAR
STARTCHAR 010C
ENCODING 268
SWIDTH 504 0
DWIDTH 7 0
BBX 7 13 0 0
BITMAP
14
1C
00
0E
3E
7E
60
E0
E0
60
78
3E
1E
ENDCHAR
STARTCHAR 010D
ENCODING 269
SWIDTH 360 0
DWIDTH 5 0
BBX 5 10 0 0
BITMAP
28
38
00
38
78
E0
E0
E0
78
38
ENDCHAR
STARTCHAR 0110
ENCODING 272
SWIDTH 576 0
DWIDTH 8 0
BBX 9 10 0 0
BITMAP
7800
7E00
7F00
6300
F380
F380
6300
6700
6E00
6C00
ENDCHAR
STARTCHAR 0111
ENCODING 273
SWIDTH 504 0
DWIDTH 7 0
BBX 8 10 0 0
BITMAP
06
1F
06
3E
7E
E6
E6
E6
7E
3C
ENDCHAR
STARTCHAR 011E
ENCODING 286
SWIDTH 720 0
DWIDTH 10 0
BBX 10 13 0 0
BITMAP
1000
0E00
0000
1F00
3F80
7B00
6000
E7C0
E7C0
61C0
71C0
3F80
1F00
ENDCHAR
STARTCHAR 011F
ENCODING 287
SWIDTH 504 0
DWIDTH 7 0
BBX 7 13 0 -3
BITMAP
24
38
00
3C
7E
E6
E6
E6
7E
3E
06
7E
7C
ENDCHAR
STARTCHAR 0128
ENCODING 296
SWIDTH 216 0
DWIDTH 3 0
BBX 4 13 0 0
BITMAP
10
F0
00
60
60
60
60
60
60
60
60
60
60
ENDCHAR
STARTCHAR 0129
ENCODING 297
SWIDTH 216 0
DWIDTH 3 0
BBX 4 10 0 0
BITMAP
10
E0
00
60
60
60
60
60
60
60
ENDCHAR
STARTCHAR 0130
ENCODING 304
SWIDTH 216 0
DWIDTH 3 0
BBX 2 13 1 0
BITMAP
C0
C0
00
C0
C0
C0
C0
C0
C0
C0
C0
C0
C0
ENDCHAR
STARTCHAR 0131
ENCODING 305
SWIDTH 216 0
DWIDTH 3 0
BBX 2 7 1 0
BITMAP
C0
C0
C0
C0
C0
C0
C0
ENDCHAR
STARTCHAR 0141
ENCODING 321
SWIDTH 432 0
DWIDTH 6 0
BBX 6 10 0 0
BITMAP
60
60
60
78
70
E0
E0
60
7C
3C
ENDCHAR
STARTCHAR 0142
ENCODING 322
SWIDTH 216 0
DWIDTH 3 0
BBX 4 10 0 0
BITMAP
60
60
60
70
70
E0
E0
60
60
60
ENDCHAR
STARTCHAR 0152
ENCODING 338
SWIDTH 1008 0
DWIDTH 14 0
BBX 14 10 0 0
BITMAP
1E1C
3FFC
7FF8
61C0
E0FC
E0FC
60C0
73E0
3FFC
1F1C
ENDCHAR
STARTCHAR 0153
ENCODING 339
SWIDTH 864 0
DWIDTH 12 0
BBX 12 7 0 0
BITMAP
3DC0
7FE0
E660
E6C0
E730
7FF0
3DE0
ENDCHAR
STARTCHAR 015E
ENCODING 350
SWIDTH 504 0
DWIDTH 7 0
BBX 7 13 0 -3
BITMAP
3C
7C
7C
60
78
3C
0E
0E
FE
FC
10
0C
3C
ENDCHAR
STARTCHAR 015F
ENCODING 351
SWIDTH 432 0
DWIDTH 6 0
BBX 6 10 0 -3
BITMAP
78
78
60
78
1C
FC
F8
20
18
78
ENDCHAR
STARTCHAR 0160
ENCODING 352
SWIDTH 504 0
DWIDTH 7 0
BBX 7 13 0 0
BITMAP
2C
38
00
3C
7C
7C
60
78
3C
0E
0E
FE
FC
ENDCHAR
STARTCHAR 0161
ENCODING 353
SWIDTH 432 0
DWIDTH 6 0
BBX 6 10 0 0
BITMAP
48
30
00
78
78
60
78
1C
FC
F8
ENDCHAR
STARTCHAR 0168
ENCODING 360
SWIDTH 576 0
DWIDTH 8 0
BBX 7 13 1 0
BITMAP
20
78
00
C6
C6
C6
C6
C6
C6
C6
CE
FC
7C
ENDCHAR
STARTCHAR 0169
ENCODING 361
SWIDTH 504 0
DWIDTH 7 0
BBX 6 10 1 0
BITMAP
08
70
00
CC
CC
CC
CC
CC
F8
78
ENDCHAR
STARTCHAR 0178
ENCODING 376
SWIDTH 504 0
DWIDTH 7 0
BBX 6 13 1 0
BITMAP
48
78
00
CC
CC
CC
CC
FC
FC
70
30
30
30
ENDCHAR
STARTCHAR 017D
ENCODING 381
SWIDTH 504 0
DWIDTH 7 0
BBX 7 13 0 0
BITMAP
28
38
00
7E
7E
7E
1C
1C
38
70
60
FE
FE
ENDCHAR
STARTCHAR 017E
ENCODING 382
SWIDTH 432 0
DWIDTH 6 0
BBX 6 10 0 0
BITMAP
48
30
00
7C
7C
18
38
70
FC
FC
ENDCHAR
STARTCHAR 0192
ENCODING 402
SWIDTH 504 0
DWIDTH 7 0
BBX 7 13 0 -3
BITMAP
0E
1E
1C
18
7E
7E
18
38
38
38
30
F0
E0
ENDCHAR
STARTCHAR 01A0
ENCODING 416
SWIDTH 720 0
DWIDTH 10 0
BBX 10 10 0 0
BITMAP
1EC0
3FC0
7FC0
61C0
E0C0
E0C0
60C0
73C0
3F80
1F00
ENDCHAR
STARTCHAR 01A1
ENCODING 417
SWIDTH 504 0
DWIDTH 7 0
BBX 8 8 0 0
BITMAP
03
3E
7E
E6
E6
E6
7E
3C
ENDCHAR
STARTCHAR 01AF
ENCODING 431
SWIDTH 648 0
DWIDTH 9 0
BBX 8 10 1 0
BITMAP
C7
C7
C6
C6
C6
C6
C6
CE
FC
7C
ENDCHAR
STARTCHAR 01B0
ENCODING 432
SWIDTH 504 0
DWIDTH 7 0
BBX 7 8 1 0
BITMAP
02
CE
CC
CC
CC
CC
F8
78
ENDCHAR
STARTCHAR 02C6
ENCODING 710
SWIDTH 432 0
DWIDTH 6 0
BBX 3 2 2 8
BITMAP
E0
A0
ENDCHAR
STARTCHAR 02C7
ENCODING 711
SWIDTH 432 0
DWIDTH 6 0
BBX 3 2 2 8
BITMAP
A0
E0
ENDCHAR
STARTCHAR 02C9
ENCODING 713
SWIDTH 432 0
DWIDTH 6 0
BBX 3 1 2 8
BITMAP
E0
ENDCHAR
STARTCHAR 02D8
ENCODING 728
SWIDTH 432 0
DWIDTH 6 0
BBX 5 2 1 8
BITMAP
88
70
ENDCHAR
STARTCHAR 02D9
ENCODING 729
SWIDTH 432 0
DWIDTH 6 0
BBX 1 2 3 8
BITMAP
80
80
ENDCHAR
STARTCHAR 02DA
ENCODING 730
SWIDTH 432 0
DWIDTH 6 0
BBX 3 3 2 8
BITMAP
E0
A0
E0
ENDCHAR
STARTCHAR 02DB
ENCODING 731
SWIDTH 432 0
DWIDTH 6 0
BBX 3 3 2 -3
BITMAP
40
80
E0
ENDCHAR
STARTCHAR 02DC
ENCODING 732
SWIDTH 432 0
DWIDTH 6 0
BBX 5 2 1 8
BITMAP
48
F0
ENDCHAR
STARTCHAR 02DD
ENCODING 733
SWIDTH 432 0
DWIDTH 6 0
BBX 4 2 2 8
BITMAP
50
A0
ENDCHAR
STARTCHAR 0394
ENCODING 916
SWIDTH 648 0
DWIDTH 9 0
BBX 10 10 0 0
BITMAP
1E00
1E00
1E00
3F00
3300
3300
7380
6180
7F80
FFC0
ENDCHAR
STARTCHAR 03A9
ENCODING 937
SWIDTH 792 0
DWIDTH 11 0
BBX 11 10 0 0
BITMAP
1F00
3FC0
71C0
60C0
60C0
60C0
71C0
3180
F9E0
F9E0
ENDCHAR
STARTCHAR 03BC
ENCODING 956
SWIDTH 576 0
DWIDTH 8 0
BBX 8 10 0 -3
BITMAP
73
63
63
63
67
FF
FE
C0
C0
C0
ENDCHAR
STARTCHAR 03C0
ENCODING 960
SWIDTH 720 0
DWIDTH 10 0
BBX 10 7 0 0
BITMAP
7FC0
FB80
3B80
3B80
3300
3300
3300
ENDCHAR
STARTCHAR 1EA0
ENCODING 7840
SWIDTH 576 0
DWIDTH 8 0
BBX 7 14 1 -4
BITMAP
38
FC
FE
C6
FE
FE
C6
C6
C6
C6
00
30
38
10
ENDCHAR
STARTCHAR 1EA1
ENCODING 7841
SWIDTH 504 0
DWIDTH 7 0
BBX 7 11 0 -4
BITMAP
3C
7E
E6
E6
E6
7E
3E
00
18
18
18
ENDCHAR
STARTCHAR 1EA2
ENCODING 7842
SWIDTH 576 0
DWIDTH 8 0
BBX 7 13 1 0
BITMAP
38
18
10
38
FC
FE
C6
FE
FE
C6
C6
C6
C6
ENDCHAR
STARTCHAR 1EA3
ENCODING 7843
SWIDTH 504 0
DWIDTH 7 0
BBX 7 11 0 0
BITMAP
18
28
08
00
3C
7E
E6
E6
E6
7E
3E
ENDCHAR
STARTCHAR 1EA4
ENCODING 7844
SWIDTH 576 0
DWIDTH 8 0
BBX 7 16 1 0
BITMAP
18
30
20
30
28
48
38
FC
FE
C6
FE
FE
C6
C6
C6
C6
ENDCHAR
STARTCHAR 1EA5
ENCODING 7845
SWIDTH 504 0
DWIDTH 7 0
BBX 7 13 0 0
BITMAP
18
10
20
18
2C
00
3C
7E
E6
E6
E6
7E
3E
ENDCHAR
STARTCHAR 1EA6
ENCODING 7846
SWIDTH 576 0
DWIDTH 8 0
BBX 7 16 1 0
BITMAP
30
10
08
30
28
48
38
FC
FE
C6
FE
FE
C6
C6
C6
C6
ENDCHAR
STARTCHAR 1EA7
ENCODING 7847
SWIDTH 504 0
DWIDTH 7 0
BBX 7 13 0 0
BITMAP
18
08
04
18
2C
00
3C
7E
E6
E6
E6
7E
3E
ENDCHAR
STARTCHAR 1EA8
ENCODING 7848
SWIDTH 576 0
DWIDTH 8 0
BBX 7 16 1 0
BITMAP
04
0A
04
30
28
48
38
FC
FE
C6
FE
FE
C6
C6
C6
C6
ENDCHAR
STARTCHAR 1EA9
ENCODING 7849
SWIDTH 504 0
DWIDTH 7 0
BBX 7 13 0 0
BITMAP
06
02
04
18
2C
00
3C
7E
E6
E6
E6
7E
3E
ENDCHAR
STARTCHAR 1EAA
ENCODING 7850
SWIDTH 576 0
DWIDTH 8 0
BBX 7 15 1 0
BITMAP
3C
08
30
28
48
38
FC
FE
C6
FE
FE
C6
C6
C6
C6
ENDCHAR
STARTCHAR 1EAB
ENCODING 7851
SWIDTH 504 0
DWIDTH 7 0
BBX 7 12 0 0
BITMAP
3C
00
18
2C
00
3C
7E
E6
E6
E6
7E
3E
ENDCHAR
STARTCHAR 1EAC
ENCODING 7852
SWIDTH 576 0
DWIDTH 8 0
BBX 7 17 1 -4
BITMAP
30
28
48
38
FC
FE
C6
FE
FE
C6
C6
C6
C6
00
30
38
10
ENDCHAR
STARTCHAR 1EAD
ENCODING 7853
SWIDTH 504 0
DWIDTH 7 0
BBX 7 14 0 -4
BITMAP
18
2C
00
3C
7E
E6
E6
E6
7E
3E
00
18
18
18
ENDCHAR
STARTCHAR 1EAE
ENCODING 7854
SWIDTH 576 0
DWIDTH 8 0
BBX 7 16 1 0
BITMAP
08
10
30
40
78
10
38
FC
FE
C6
FE
FE
C6
C6
C6
C6
ENDCHAR
STARTCHAR 1EAF
ENCODING 7855
SWIDTH 504 0
DWIDTH 7 0
BBX 7 13 0 0
BITMAP
0C
18
10
24
3C
00
3C
7E
E6
E6
E6
7E
3E
ENDCHAR
STARTCHAR 1EB0
ENCODING 7856
SWIDTH 576 0
DWIDTH 8 0
BBX 7 16 1 0
BITMAP
60
30
10
40
78
10
38
FC
FE
C6
FE
FE
C6
C6
C6
C6
ENDCHAR
STARTCHAR 1EB1
ENCODING 7857
SWIDTH 504 0
DWIDTH 7 0
BBX 7 13 0 0
BITMAP
30
10
08
24
3C
00
3C
7E
E6
E6
E6
7E
3E
ENDCHAR
STARTCHAR 1EB2
ENCODING 7858
SWIDTH 576 0
DWIDTH 8 0
BBX 7 16 1 0
BITMAP
10
28
10
40
78
10
38
FC
FE
C6
FE
FE
C6
C6
C6
C6
ENDCHAR
STARTCHAR 1EB3
ENCODING 7859
SWIDTH 504 0
DWIDTH 7 0
BBX 7 13 0 0
BITMAP
18
08
08
24
3C
00
3C
7E
E6
E6
E6
7E
3E
ENDCHAR
STARTCHAR 1EB4
ENCODING 7860
SWIDTH 576 0
DWIDTH 8 0
BBX 7 15 1 0
BITMAP
38
48
40
78
10
38
FC
FE
C6
FE
FE
C6
C6
C6
C6
ENDCHAR
STARTCHAR 1EB5
ENCODING 7861
SWIDTH 504 0
DWIDTH 7 0
BBX 7 12 0 0
BITMAP
3C
00
24
3C
00
3C
7E
E6
E6
E6
7E
3E
ENDCHAR
STARTCHAR 1EB6
ENCODING 7862
SWIDTH 576 0
DWIDTH 8 0
BBX 7 17 1 -4
BITMAP
40
78
10
38
FC
FE
C6
FE
FE
C6
C6
C6
C6
00
30
38
10
ENDCHAR
STARTCHAR 1EB7
ENCODING 7863
SWIDTH 504 0
DWIDTH 7 0
BBX 7 14 0 -4
BITMAP
24
3C
00
3C
7E
E6
E6
E6
7E
3E
00
18
18
18
ENDCHAR
STARTCHAR 1EB8
ENCODING 7864
SWIDTH 504 0
DWIDTH 7 0
BBX 7 14 0 -4
BITMAP
0E
3E
7C
60
FE
FE
60
70
3E
1E
00
1C
1C
08
ENDCHAR
STARTCHAR 1EB9
ENCODING 7865
SWIDTH 504 0
DWIDTH 7 0
BBX 8 11 0 -4
BITMAP
3C
7E
EE
D8
E7
7E
3C
00
18
38
10
ENDCHAR
STARTCHAR 1EBA
ENCODING 7866
SWIDTH 504 0
DWIDTH 7 0
BBX 7 13 0 0
BITMAP
0E
06
04
0E
3E
7C
60
FE
FE
60
70
3E
1E
ENDCHAR
STARTCHAR 1EBB
ENCODING 7867
SWIDTH 504 0
DWIDTH 7 0
BBX 8 11 0 0
BITMAP
18
28
08
00
3C
7E
EE
D8
E7
7E
3C
ENDCHAR
STARTCHAR 1EBC
ENCODING 7868
SWIDTH 504 0
DWIDTH 7 0
BBX 7 13 0 0
BITMAP
02
1C
00
0E
3E
7C
60
FE
FE
60
70
3E
1E
ENDCHAR
STARTCHAR 1EBD
ENCODING 7869
SWIDTH 504 0
DWIDTH 7 0
BBX 8 10 0 0
BITMAP
04
38
00
3C
7E
EE
D8
E7
7E
3C
ENDCHAR
STARTCHAR 1EBE
ENCODING 7870
SWIDTH 504 0
DWIDTH 7 0
BBX 7 16 0 0
BITMAP
0C
08
10
0C
14
12
0E
3E
7C
60
FE
FE
60
70
3E
1E
ENDCHAR
STARTCHAR 1EBF
ENCODING 7871
SWIDTH 504 0
DWIDTH 7 0
BBX 8 13 0 0
BITMAP
18
10
20
18
2C
00
3C
7E
EE
D8
E7
7E
3C
ENDCHAR
STARTCHAR 1EC0
ENCODING 7872
SWIDTH 504 0
DWIDTH 7 0
BBX 7 16 0 0
BITMAP
18
0C
04
0C
14
12
0E
3E
7C
60
FE
FE
60
70
3E
1E
ENDCHAR
STARTCHAR 1EC1
ENCODING 7873
SWIDTH 504 0
DWIDTH 7 0
BBX 8 13 0 0
BITMAP
18
08
04
18
2C
00
3C
7E
EE
D8
E7
7E
3C
ENDCHAR
STARTCHAR 1EC2
ENCODING 7874
SWIDTH 504 0
DWIDTH 7 0
BBX 8 16 0 0
BITMAP
02
05
03
0C
14
12
0E
3E
7C
60
FE
FE
60
70
3E
1E
ENDCHAR
STARTCHAR 1EC3
ENCODING 7875
SWIDTH 504 0
DWIDTH 7 0
BBX 8 13 0 0
BITMAP
06
02
04
18
2C
00
3C
7E
EE
D8
E7
7E
3C
ENDCHAR
STARTCHAR 1EC4
ENCODING 7876
SWIDTH 504 0
DWIDTH 7 0
BBX 7 15 0 0
BITMAP
1E
14
0C
14
12
0E
3E
7C
60
FE
FE
60
70
3E
1E
ENDCHAR
STARTCHAR 1EC5
ENCODING 7877
SWIDTH 504 0
DWIDTH 7 0
BBX 8 12 0 0
BITMAP
3C
00
18
2C
00
3C
7E
EE
D8
E7
7E
3C
ENDCHAR
STARTCHAR 1EC6
ENCODING 7878
SWIDTH 504 0
DWIDTH 7 0
BBX 7 17 0 -4
BITMAP
0C
14
12
0E
3E
7C
60
FE
FE
60
70
3E
1E
00
1C
1C
08
ENDCHAR
STARTCHAR 1EC7
ENCODING 7879
SWIDTH 504 0
DWIDTH 7 0
BBX 8 14 0 -4
BITMAP
18
2C
00
3C
7E
EE
D8
E7
7E
3C
00
18
38
10
ENDCHAR
STARTCHAR 1EC8
ENCODING 7880
SWIDTH 216 0
DWIDTH 3 0
BBX 2 13 1 0
BITMAP
C0
40
00
C0
C0
C0
C0
C0
C0
C0
C0
C0
C0
ENDCHAR
STARTCHAR 1EC9
ENCODING 7881
SWIDTH 216 0
DWIDTH 3 0
BBX 3 11 0 0
BITMAP
40
A0
60
00
60
60
60
60
60
60
60
ENDCHAR
STARTCHAR 1ECA
ENCODING 7882
SWIDTH 216 0
DWIDTH 3 0
BBX 2 14 1 -4
BITMAP
C0
C0
C0
C0
C0
C0
C0
C0
C0
C0
00
C0
C0
C0
ENDCHAR
STARTCHAR 1ECB
ENCODING 7883
SWIDTH 216 0
DWIDTH 3 0
BBX 3 14 0 -4
BITMAP
60
E0
40
60
60
60
60
60
60
60
00
60
E0
40
ENDCHAR
STARTCHAR 1ECC
ENCODING 7884
SWIDTH 720 0
DWIDTH 10 0
BBX 10 14 0 -4
BITMAP
1E00
3F80
7FC0
61C0
E0C0
E0C0
60C0
73C0
3F80
1F00
0000
0E00
0E00
0400
ENDCHAR
STARTCHAR 1ECD
ENCODING 7885
SWIDTH 504 0
DWIDTH 7 0
BBX 7 11 0 -4
BITMAP
3C
7E
E6
E6
E6
7E
3C
00
18
38
10
ENDCHAR
STARTCHAR 1ECE
ENCODING 7886
SWIDTH 720 0
DWIDTH 10 0
BBX 10 13 0 0
BITMAP
0E00
0600
0400
1E00
3F80
7FC0
61C0
E0C0
E0C0
60C0
73C0
3F80
1F00
ENDCHAR
STARTCHAR 1ECF
ENCODING 7887
SWIDTH 504 0
DWIDTH 7 0
BBX 7 11 0 0
BITMAP
18
28
08
00
3C
7E
E6
E6
E6
7E
3C
ENDCHAR
STARTCHAR 1ED0
ENCODING 7888
SWIDTH 720 0
DWIDTH 10 0
BBX 10 16 0 0
BITMAP
0600
0C00
0800
0C00
0A00
1200
1E00
3F80
7FC0
61C0
E0C0
E0C0
60C0
73C0
3F80
1F00
ENDCHAR
STARTCHAR 1ED1
ENCODING 7889
SWIDTH 504 0
DWIDTH 7 0
BBX 7 13 0 0
BITMAP
18
10
20
18
2C
00
3C
7E
E6
E6
E6
7E
3C
ENDCHAR
STARTCHAR 1ED2
ENCODING 7890
SWIDTH 720 0
DWIDTH 10 0
BBX 10 16 0 0
BITMAP
0C00
0400
0200
0C00
0A00
1200
1E00
3F80
7FC0
61C0
E0C0
E0C0
60C0
73C0
3F80
1F00
ENDCHAR
STARTCHAR 1ED3
ENCODING 7891
SWIDTH 504 0
DWIDTH 7 0
BBX 7 13 0 0
BITMAP
10
08
04
18
2C
00
3C
7E
E6
E6
E6
7E
3C
ENDCHAR
STARTCHAR 1ED4
ENCODING 7892
SWIDTH 720 0
DWIDTH 10 0
BBX 10 16 0 0
BITMAP
0100
0280
0100
0C00
0A00
1200
1E00
3F80
7FC0
61C0
E0C0
E0C0
60C0
73C0
3F80
1F00
ENDCHAR
STARTCHAR 1ED5
ENCODING 7893
SWIDTH 504 0
DWIDTH 7 0
BBX 7 13 0 0
BITMAP
06
02
04
18
2C
00
3C
7E
E6
E6
E6
7E
3C
ENDCHAR
STARTCHAR 1ED6
ENCODING 7894
SWIDTH 720 0
DWIDTH 10 0
BBX 10 15 0 0
BITMAP
0F00
0200
0C00
0A00
1200
1E00
3F80
7FC0
61C0
E0C0
E0C0
60C0
73C0
3F80
1F00
ENDCHAR
STARTCHAR 1ED7
ENCODING 7895
SWIDTH 504 0
DWIDTH 7 0
BBX 7 12 0 0
BITMAP
3C
00
18
2C
00
3C
7E
E6
E6
E6
7E
3C
ENDCHAR
STARTCHAR 1ED8
ENCODING 7896
SWIDTH 720 0
DWIDTH 10 0
BBX 10 17 0 -4
BITMAP
0C00
0A00
1200
1E00
3F80
7FC0
61C0
E0C0
E0C0
60C0
73C0
3F80
1F00
0000
0E00
0E00
0400
ENDCHAR
STARTCHAR 1ED9
ENCODING 7897
SWIDTH 504 0
DWIDTH 7 0
BBX 7 14 0 -4
BITMAP
18
2C
00
3C
7E
E6
E6
E6
7E
3C
00
18
38
10
ENDCHAR
STARTCHAR 1EDA
ENCODING 7898
SWIDTH 720 0
DWIDTH 10 0
BBX 10 13 0 0
BITMAP
0600
0400
0000
1EC0
3FC0
7FC0
61C0
E0C0
E0C0
60C0
73C0
3F80
1F00
ENDCHAR
STARTCHAR 1EDB
ENCODING 7899
SWIDTH 504 0
DWIDTH 7 0
BBX 8 10 0 0
BITMAP
08
10
03
3E
7E
E6
E6
E6
7E
3C
ENDCHAR
STARTCHAR 1EDC
ENCODING 7900
SWIDTH 720 0
DWIDTH 10 0
BBX 10 13 0 0
BITMAP
0800
0400
0000
1EC0
3FC0
7FC0
61C0
E0C0
E0C0
60C0
73C0
3F80
1F00
ENDCHAR
STARTCHAR 1EDD
ENCODING 7901
SWIDTH 504 0
DWIDTH 7 0
BBX 8 10 0 0
BITMAP
30
10
03
3E
7E
E6
E6
E6
7E
3C
ENDCHAR
STARTCHAR 1EDE
ENCODING 7902
SWIDTH 720 0
DWIDTH 10 0
BBX 10 13 0 0
BITMAP
0E00
0600
0400
1EC0
3FC0
7FC0
61C0
E0C0
E0C0
60C0
73C0
3F80
1F00
ENDCHAR
STARTCHAR 1EDF
ENCODING 7903
SWIDTH 504 0
DWIDTH 7 0
BBX 8 11 0 0
BITMAP
18
28
08
03
3E
7E
E6
E6
E6
7E
3C
ENDCHAR
STARTCHAR 1EE0
ENCODING 7904
SWIDTH 720 0
DWIDTH 10 0
BBX 10 13 0 0
BITMAP
0800
1E00
0000
1EC0
3FC0
7FC0
61C0
E0C0
E0C0
60C0
73C0
3F80
1F00
ENDCHAR
STARTCHAR 1EE1
ENCODING 7905
SWIDTH 504 0
DWIDTH 7 0
BBX 8 10 0 0
BITMAP
14
38
03
3E
7E
E6
E6
E6
7E
3C
ENDCHAR
STARTCHAR 1EE2
ENCODING 7906
SWIDTH 720 0
DWIDTH 10 0
BBX 10 14 0 -4
BITMAP
1EC0
3FC0
7FC0
61C0
E0C0
E0C0
60C0
73C0
3F80
1F00
0000
0E00
0E00
0400
ENDCHAR
STARTCHAR 1EE3
ENCODING 7907
SWIDTH 504 0
DWIDTH 7 0
BBX 8 12 0 -4
BITMAP
03
3E
7E
E6
E6
E6
7E
3C
00
18
38
10
ENDCHAR
STARTCHAR 1EE4
ENCODING 7908
SWIDTH 576 0
DWIDTH 8 0
BBX 7 14 1 -4
BITMAP
C6
C6
C6
C6
C6
C6
C6
CE
FC
7C
00
30
38
10
ENDCHAR
STARTCHAR 1EE5
ENCODING 7909
SWIDTH 504 0
DWIDTH 7 0
BBX 6 11 1 -4
BITMAP
CC
CC
CC
CC
CC
F8
78
00
30
70
20
ENDCHAR
STARTCHAR 1EE6
ENCODING 7910
SWIDTH 576 0
DWIDTH 8 0
BBX 7 13 1 0
BITMAP
38
18
10
C6
C6
C6
C6
C6
C6
C6
CE
FC
7C
ENDCHAR
STARTCHAR 1EE7
ENCODING 7911
SWIDTH 504 0
DWIDTH 7 0
BBX 6 11 1 0
BITMAP
20
50
30
00
CC
CC
CC
CC
CC
F8
78
ENDCHAR
STARTCHAR 1EE8
ENCODING 7912
SWIDTH 648 0
DWIDTH 9 0
BBX 8 13 1 0
BITMAP
18
10
00
C7
C7
C6
C6
C6
C6
C6
CE
FC
7C
ENDCHAR
STARTCHAR 1EE9
ENCODING 7913
SWIDTH 504 0
DWIDTH 7 0
BBX 7 10 1 0
BITMAP
10
20
02
CE
CC
CC
CC
CC
F8
78
ENDCHAR
STARTCHAR 1EEA
ENCODING 7914
SWIDTH 648 0
DWIDTH 9 0
BBX 8 13 1 0
BITMAP
20
10
00
C7
C7
C6
C6
C6
C6
C6
CE
FC
7C
ENDCHAR
STARTCHAR 1EEB
ENCODING 7915
SWIDTH 504 0
DWIDTH 7 0
BBX 7 10 1 0
BITMAP
60
20
02
CE
CC
CC
CC
CC
F8
78
ENDCHAR
STARTCHAR 1EEC
ENCODING 7916
SWIDTH 648 0
DWIDTH 9 0
BBX 8 13 1 0
BITMAP
38
18
10
C7
C7
C6
C6
C6
C6
C6
CE
FC
7C
ENDCHAR
STARTCHAR 1EED
ENCODING 7917
SWIDTH 504 0
DWIDTH 7 0
BBX 7 11 1 0
BITMAP
20
50
30
02
CE
CC
CC
CC
CC
F8
78
ENDCHAR
STARTCHAR 1EEE
ENCODING 7918
SWIDTH 648 0
DWIDTH 9 0
BBX 8 13 1 0
BITMAP
20
78
00
C7
C7
C6
C6
C6
C6
C6
CE
FC
7C
ENDCHAR
STARTCHAR 1EEF
ENCODING 7919
SWIDTH 504 0
DWIDTH 7 0
BBX 7 10 1 0
BITMAP
08
70
02
CE
CC
CC
CC
CC
F8
78
ENDCHAR
STARTCHAR 1EF0
ENCODING 7920
SWIDTH 648 0
DWIDTH 9 0
BBX 8 14 1 -4
BITMAP
C7
C7
C6
C6
C6
C6
C6
CE
FC
7C
00
30
38
10
ENDCHAR
STARTCHAR 1EF1
ENCODING 7921
SWIDTH 504 0
DWIDTH 7 0
BBX 7 12 1 -4
BITMAP
02
CE
CC
CC
CC
CC
F8
78
00
30
70
20
ENDCHAR
STARTCHAR 1EF2
ENCODING 7922
SWIDTH 504 0
DWIDTH 7 0
BBX 6 13 1 0
BITMAP
60
30
00
CC
CC
CC
CC
FC
FC
70
30
30
30
ENDCHAR
STARTCHAR 1EF3
ENCODING 7923
SWIDTH 504 0
DWIDTH 7 0
BBX 6 13 1 -3
BITMAP
60
20
00
CC
CC
CC
CC
CC
F8
78
30
30
30
ENDCHAR
STARTCHAR 1EF4
ENCODING 7924
SWIDTH 504 0
DWIDTH 7 0
BBX 6 14 1 -4
BITMAP
CC
CC
CC
CC
FC
FC
70
30
30
30
00
30
30
30
ENDCHAR
STARTCHAR 1EF5
ENCODING 7925
SWIDTH 504 0
DWIDTH 7 0
BBX 6 11 1 -4
BITMAP
CC
CC
CC
CC
CC
F8
78
30
3C
3C
0C
ENDCHAR
STARTCHAR 1EF6
ENCODING 7926
SWIDTH 504 0
DWIDTH 7 0
BBX 6 13 1 0
BITMAP
30
10
00
CC
CC
CC
CC
FC
FC
70
30
30
30
ENDCHAR
STARTCHAR 1EF7
ENCODING 7927
SWIDTH 504 0
DWIDTH 7 0
BBX 6 14 1 -3
BITMAP
20
50
30
00
CC
CC
CC
CC
CC
F8
78
30
30
30
ENDCHAR
STARTCHAR 1EF8
ENCODING 7928
SWIDTH 504 0
DWIDTH 7 0
BBX 6 13 1 0
BITMAP
08
78
00
CC
CC
CC
CC
FC
FC
70
30
30
30
ENDCHAR
STARTCHAR 1EF9
ENCODING 7929
SWIDTH 504 0
DWIDTH 7 0
BBX 6 13 1 -3
BITMAP
08
70
00
CC
CC
CC
CC
CC
F8
78
30
30
30
ENDCHAR
STARTCHAR 2010
ENCODING 8208
SWIDTH 288 0
DWIDTH 4 0
BBX 4 1 0 3
BITMAP
F0
ENDCHAR
STARTCHAR 2013
ENCODING 8211
SWIDTH 432 0
DWIDTH 6 0
BBX 7 1 0 3
BITMAP
FE
ENDCHAR
STARTCHAR 2014
ENCODING 8212
SWIDTH 936 0
DWIDTH 13 0
BBX 14 1 0 3
BITMAP
FFFC
ENDCHAR
STARTCHAR 2018
ENCODING 8216
SWIDTH 216 0
DWIDTH 3 0
BBX 2 3 1 7
BITMAP
40
C0
C0
ENDCHAR
STARTCHAR 2019
ENCODING 8217
SWIDTH 216 0
DWIDTH 3 0
BBX 2 3 1 7
BITMAP
C0
C0
C0
ENDCHAR
STARTCHAR 201A
ENCODING 8218
SWIDTH 216 0
DWIDTH 3 0
BBX 2 4 1 -2
BITMAP
C0
C0
C0
80
ENDCHAR
STARTCHAR 201C
ENCODING 8220
SWIDTH 432 0
DWIDTH 6 0
BBX 5 3 1 7
BITMAP
58
D8
D8
ENDCHAR
STARTCHAR 201D
ENCODING 8221
SWIDTH 432 0
DWIDTH 6 0
BBX 5 3 1 7
BITMAP
D8
D8
D8
ENDCHAR
STARTCHAR 201E
ENCODING 8222
SWIDTH 432 0
DWIDTH 6 0
BBX 5 4 1 -2
BITMAP
D8
D8
D0
90
ENDCHAR
STARTCHAR 2020
ENCODING 8224
SWIDTH 432 0
DWIDTH 6 0
BBX 7 11 0 -1
BITMAP
38
38
FE
FE
38
38
38
38
38
38
38
ENDCHAR
STARTCHAR 2021
ENCODING 8225
SWIDTH 432 0
DWIDTH 6 0
BBX 7 11 0 -1
BITMAP
38
38
FE
FE
38
38
FE
FE
38
38
38
ENDCHAR
STARTCHAR 2022
ENCODING 8226
SWIDTH 576 0
DWIDTH 8 0
BBX 4 4 2 3
BITMAP
70
F0
F0
60
ENDCHAR
STARTCHAR 2026
ENCODING 8230
SWIDTH 936 0
DWIDTH 13 0
BBX 12 3 1 0
BITMAP
4420
E670
E670
ENDCHAR
STARTCHAR 2030
ENCODING 8240
SWIDTH 1224 0
DWIDTH 17 0
BBX 17 10 0 0
BITMAP
30C000
788000
C90000
4B0000
7A0000
06E700
0DEF80
093C80
19EF80
10E700
ENDCHAR
STARTCHAR 2039
ENCODING 8249
SWIDTH 288 0
DWIDTH 4 0
BBX 3 5 1 1
BITMAP
60
40
80
40
60
ENDCHAR
STARTCHAR 203A
ENCODING 8250
SWIDTH 288 0
DWIDTH 4 0
BBX 3 5 1 1
BITMAP
80
40
60
40
80
ENDCHAR
STARTCHAR 2044
ENCODING 8260
SWIDTH 144 0
DWIDTH 2 0
BBX 6 10 -2 0
BITMAP
04
04
08
18
10
30
20
40
40
80
ENDCHAR
STARTCHAR 20A3
ENCODING 8355
SWIDTH 792 0
DWIDTH 11 0
BBX 10 10 1 0
BITMAP
3800
F800
F800
C340
FBC0
FB80
C300
C300
C300
C300
ENDCHAR
STARTCHAR 20AB
ENCODING 8363
SWIDTH 360 0
DWIDTH 5 0
BBX 6 9 0 1
BITMAP
08
1C
78
78
C8
C8
78
00
78
ENDCHAR
STARTCHAR 2122
ENCODING 8482
SWIDTH 792 0
DWIDTH 11 0
BBX 9 4 1 6
BITMAP
FD80
6D80
6A80
6A80
ENDCHAR
STARTCHAR 2126
ENCODING 8486
SWIDTH 792 0
DWIDTH 11 0
BBX 11 10 0 0
BITMAP
1F00
3FC0
71C0
60C0
60C0
60C0
71C0
3180
F9E0
F9E0
ENDCHAR
STARTCHAR 2202
ENCODING 8706
SWIDTH 504 0
DWIDTH 7 0
BBX 7 9 0 0
BITMAP
3C
36
06
36
6E
C6
C6
4C
78
ENDCHAR
STARTCHAR 2206
ENCODING 8710
SWIDTH 648 0
DWIDTH 9 0
BBX 10 10 0 0
BITMAP
1E00
1E00
1E00
3F00
3300
3300
7380
6180
7F80
FFC0
ENDCHAR
STARTCHAR 220F
ENCODING 8719
SWIDTH 792 0
DWIDTH 11 0
BBX 9 13 1 -3
BITMAP
FF80
FF80
E380
E380
E380
E380
E380
E380
E380
E380
E380
E380
E380
ENDCHAR
STARTCHAR 2211
ENCODING 8721
SWIDTH 720 0
DWIDTH 10 0
BBX 10 13 0 -3
BITMAP
FFC0
FFC0
7000
3800
1C00
0E00
0700
0E00
1C00
3800
7000
FFC0
FFC0
ENDCHAR
STARTCHAR 2212
ENCODING 8722
SWIDTH 792 0
DWIDTH 11 0
BBX 8 2 2 3
BITMAP
FF
FF
ENDCHAR
STARTCHAR 2219
ENCODING 8729
SWIDTH 216 0
DWIDTH 3 0
BBX 2 2 1 4
BITMAP
C0
C0
ENDCHAR
STARTCHAR 221A
ENCODING 8730
SWIDTH 648 0
DWIDTH 9 0
BBX 8 12 1 0
BITMAP
01
03
02
02
04
44
C4
68
68
38
30
10
ENDCHAR
STARTCHAR 221E
ENCODING 8734
SWIDTH 792 0
DWIDTH 11 0
BBX 9 6 1 1
BITMAP
7300
7F80
8C80
9C80
7F80
3300
ENDCHAR
STARTCHAR 222B
ENCODING 8747
SWIDTH 576 0
DWIDTH 8 0
BBX 8 14 0 -3
BITMAP
02
0F
09
08
08
18
18
18
18
18
18
50
D0
20
ENDCHAR
STARTCHAR 2248
ENCODING 8776
SWIDTH 792 0
DWIDTH 11 0
BBX 9 6 1 1
BITMAP
7880
FF80
8300
7880
FF80
8200
ENDCHAR
STARTCHAR 2260
ENCODING 8800
SWIDTH 792 0
DWIDTH 11 0
BBX 8 8 2 0
BITMAP
06
04
FF
18
30
FF
60
40
ENDCHAR
STARTCHAR 2264
ENCODING 8804
SWIDTH 792 0
DWIDTH 11 0
BBX 8 8 2 1
BITMAP
07
7E
E0
F8
1F
03
00
FF
ENDCHAR
STARTCHAR 2265
ENCODING 8805
SWIDTH 792 0
DWIDTH 11 0
BBX 8 8 2 1
BITMAP
E0
7C
0F
3F
F0
80
00
FF
ENDCHAR
STARTCHAR 22F2
ENCODING 8946
SWIDTH 792 0
DWIDTH 11 0
BBX 9 6 1 1
BITMAP
7880
FF80
8300
7880
FF80
8200
ENDCHAR
STARTCHAR 255F
ENCODING 9567
SWIDTH 576 0
DWIDTH 8 0
BBX 7 10 1 0
BITMAP
38
FC
FE
C6
FE
FE
C6
C6
C6
C6
ENDCHAR
STARTCHAR 2560
ENCODING 9568
SWIDTH 504 0
DWIDTH 7 0
BBX 7 10 0 0
BITMAP
0E
3E
7C
60
FE
FE
60
70
3E
1E
ENDCHAR
STARTCHAR 2561
ENCODING 9569
SWIDTH 216 0
DWIDTH 3 0
BBX 2 10 1 0
BITMAP
C0
C0
C0
C0
C0
C0
C0
C0
C0
C0
ENDCHAR
STARTCHAR 2562
ENCODING 9570
SWIDTH 720 0
DWIDTH 10 0
BBX 10 10 0 0
BITMAP
1E00
3F80
7FC0
61C0
E0C0
E0C0
60C0
73C0
3F80
1F00
ENDCHAR
STARTCHAR 2563
ENCODING 9571
SWIDTH 576 0
DWIDTH 8 0
BBX 7 10 1 0
BITMAP
C6
C6
C6
C6
C6
C6
C6
CE
FC
7C
ENDCHAR
STARTCHAR 2564
ENCODING 9572
SWIDTH 504 0
DWIDTH 7 0
BBX 6 10 1 0
BITMAP
CC
CC
CC
CC
FC
FC
70
30
30
30
ENDCHAR
STARTCHAR 2565
ENCODING 9573
SWIDTH 504 0
DWIDTH 7 0
BBX 7 7 0 0
BITMAP
3C
7E
E6
E6
E6
7E
3E
ENDCHAR
STARTCHAR 2566
ENCODING 9574
SWIDTH 504 0
DWIDTH 7 0
BBX 8 7 0 0
BITMAP
3C
7E
EE
D8
E7
7E
3C
ENDCHAR
STARTCHAR 2567
ENCODING 9575
SWIDTH 216 0
DWIDTH 3 0
BBX 3 10 0 0
BITMAP
60
E0
40
60
60
60
60
60
60
60
ENDCHAR
STARTCHAR 2568
ENCODING 9576
SWIDTH 216 0
DWIDTH 3 0
BBX 2 7 1 0
BITMAP
C0
C0
C0
C0
C0
C0
C0
ENDCHAR
STARTCHAR 2569
ENCODING 9577
SWIDTH 504 0
DWIDTH 7 0
BBX 7 7 0 0
BITMAP
3C
7E
E6
E6
E6
7E
3C
ENDCHAR
STARTCHAR 256A
ENCODING 9578
SWIDTH 504 0
DWIDTH 7 0
BBX 6 7 1 0
BITMAP
CC
CC
CC
CC
CC
F8
78
ENDCHAR
STARTCHAR 256B
ENCODING 9579
SWIDTH 504 0
DWIDTH 7 0
BBX 6 10 1 -3
BITMAP
CC
CC
CC
CC
CC
F8
78
30
30
30
ENDCHAR
STARTCHAR 25CA
ENCODING 9674
SWIDTH 432 0
DWIDTH 6 0
BBX 7 14 0 -3
BITMAP
10
10
28
48
44
44
82
82
44
44
48
28
10
10
ENDCHAR
STARTCHAR 25CB
ENCODING 9675
SWIDTH 576 0
DWIDTH 8 0
BBX 4 6 2 10
BITMAP
30
60
40
60
50
90
ENDCHAR
STARTCHAR 25CF
ENCODING 9679
SWIDTH 576 0
DWIDTH 8 0
BBX 4 6 2 10
BITMAP
60
20
10
60
50
90
ENDCHAR
STARTCHAR 25D8
ENCODING 9688
SWIDTH 576 0
DWIDTH 8 0
BBX 6 6 2 10
BITMAP
08
14
08
60
50
90
ENDCHAR
STARTCHAR 25D9
ENCODING 9689
SWIDTH 576 0
DWIDTH 8 0
BBX 5 5 2 10
BITMAP
78
10
60
50
90
ENDCHAR
STARTCHAR F000
ENCODING 61440
SWIDTH 720 0
DWIDTH 10 0
BBX 9 11 1 0
BITMAP
0200
0600
0400
7F80
FF00
FF00
FF00
FF00
FF80
7F80
3F00
ENDCHAR
STARTCHAR F001
ENCODING 61441
SWIDTH 504 0
DWIDTH 7 0
BBX 6 10 1 0
BITMAP
6C
EC
C0
EC
EC
CC
CC
CC
CC
CC
ENDCHAR
STARTCHAR F002
ENCODING 61442
SWIDTH 504 0
DWIDTH 7 0
BBX 6 10 1 0
BITMAP
6C
EC
CC
EC
EC
CC
CC
CC
CC
CC
ENDCHAR
ENDFONT
